<svg width="38" height="34" viewBox="0 0 38 34" fill="none" xmlns="http://www.w3.org/2000/svg">
<path d="M2 2L7.61783 7.00012M7.61783 7.00012C5.7955 7.00172 4.83478 7.025 4.08877 7.36332C3.38407 7.68288 2.81114 8.19282 2.45207 8.82003C2.04389 9.53307 2.04389 10.4665 2.04389 12.3333V25C2.04389 26.8668 2.04389 27.8003 2.45207 28.5133C2.81114 29.1405 3.38407 29.6505 4.08877 29.97C4.88989 30.3333 5.93862 30.3333 8.0361 30.3333H29.7578C31.718 30.3333 32.7621 30.3333 33.5443 30.0368M7.61783 7.00012L15.9283 14.3968M35.7062 32L33.5443 30.0368M33.5443 30.0368L23.6504 21.2698M14.6247 3.78018C14.8017 3.73798 14.9831 3.70713 15.1677 3.68832C15.38 3.66667 15.6104 3.66667 16.0706 3.66667H21.7232C22.1836 3.66667 22.4138 3.66667 22.6263 3.68832C23.7345 3.8013 24.7283 4.34803 25.3374 5.1797C25.4543 5.33908 25.5573 5.52242 25.763 5.88888C25.866 6.07215 25.9175 6.16378 25.9758 6.24348C26.2804 6.65932 26.7774 6.93268 27.3315 6.98917C27.4377 7 27.5528 7 27.783 7H29.7578C31.8553 7 32.9041 7 33.7052 7.36332C34.4098 7.68288 34.9828 8.19282 35.342 8.82003C35.75 9.53307 35.75 10.4665 35.75 12.3333V22.5827M23.6504 21.2698C22.6636 22.7072 20.8843 23.6667 18.8531 23.6667C15.7504 23.6667 13.2354 21.4282 13.2354 18.6667C13.2354 16.8588 14.3134 15.2752 15.9283 14.3968M23.6504 21.2698L15.9283 14.3968" stroke="#BD1212" stroke-width="4" stroke-linecap="round" stroke-linejoin="round"/>
</svg>
