<svg width="38" height="34" viewBox="0 0 38 34" fill="none" xmlns="http://www.w3.org/2000/svg">
<path d="M18.875 24.5C21.9817 24.5 24.5 21.9817 24.5 18.875C24.5 15.7683 21.9817 13.25 18.875 13.25C15.7683 13.25 13.25 15.7683 13.25 18.875C13.25 21.9817 15.7683 24.5 18.875 24.5Z" stroke="#19AC16" stroke-width="4" stroke-linecap="round" stroke-linejoin="round"/>
<path d="M2 26V11.75C2 9.64981 2 8.5997 2.40873 7.79754C2.76824 7.09192 3.34192 6.51824 4.04754 6.15873C4.8497 5.75 5.89981 5.75 8 5.75H9.97745C10.208 5.75 10.3232 5.75 10.4295 5.73781C10.9844 5.67427 11.482 5.36673 11.7869 4.89892C11.8454 4.80926 11.8969 4.70615 12 4.49999C12.2062 4.08766 12.3093 3.88149 12.4262 3.70216C13.0361 2.76654 14.0313 2.15146 15.1409 2.02436C15.3536 2 15.584 2 16.0451 2H21.7049C22.166 2 22.3964 2 22.6091 2.02436C23.7187 2.15146 24.7139 2.76654 25.3239 3.70216C25.4407 3.88147 25.5438 4.08772 25.7501 4.49999C25.853 4.70617 25.9046 4.80926 25.9631 4.89892C26.2681 5.36673 26.7656 5.67427 27.3204 5.73781C27.4269 5.75 27.542 5.75 27.7726 5.75H29.75C31.8502 5.75 32.9004 5.75 33.7025 6.15873C34.4081 6.51824 34.9818 7.09192 35.3412 7.79754C35.75 8.5997 35.75 9.64981 35.75 11.75V26C35.75 28.1002 35.75 29.1504 35.3412 29.9525C34.9818 30.6581 34.4081 31.2318 33.7025 31.5912C32.9004 32 31.8502 32 29.75 32H8C5.89981 32 4.8497 32 4.04754 31.5912C3.34192 31.2318 2.76824 30.6581 2.40873 29.9525C2 29.1504 2 28.1002 2 26Z" stroke="#19AC16" stroke-width="4" stroke-linecap="round" stroke-linejoin="round"/>
</svg>
