<svg width="43" height="37" viewBox="0 0 43 37" fill="none" xmlns="http://www.w3.org/2000/svg">
<path d="M41.2932 14.366L36.4672 11.063V2.61045C36.4672 1.95847 35.9386 1.42991 35.2867 1.42991H29.5369C28.8848 1.42991 28.3564 1.95853 28.3564 2.61045V5.51141C28.3564 5.51141 22.1597 1.26575 22.0785 1.20914C21.6876 0.936691 21.1532 0.923956 20.7368 1.20914L1.51386 14.366C0.975836 14.7343 0.838212 15.4689 1.20641 16.007C1.43512 16.3411 1.80518 16.5209 2.18178 16.5209C2.41148 16.5209 2.64366 16.454 2.84749 16.3144L6.33989 13.9241V34.8195C6.33989 35.4714 6.86852 36 7.52043 36H35.2865C35.9385 36 36.4671 35.4714 36.4671 34.8195V13.924L39.9595 16.3143C40.1635 16.454 40.3955 16.5208 40.6252 16.5208C41.0017 16.5208 41.3718 16.3411 41.6006 16.0069C41.9689 15.469 41.8312 14.7343 41.2932 14.366ZM23.854 33.6389H18.9533V22.1596H23.854V33.6389ZM34.1061 33.6389H26.2151V20.979C26.2151 20.327 25.6865 19.7985 25.0346 19.7985H17.7727C17.1208 19.7985 16.5922 20.3271 16.5922 20.979V33.6389H8.7011V12.308L21.4037 3.61395L34.1063 12.3081V33.6389H34.1061ZM34.1061 9.44689L30.7174 7.12749V3.79105H34.1061V9.44689Z" fill="white" stroke="white" stroke-width="1.30719"/>
</svg>
