<svg width="17" height="20" viewBox="0 0 17 20" fill="none" xmlns="http://www.w3.org/2000/svg">
<path d="M13.2921 6.98391C14.8102 7.93266 15.5692 8.40703 15.8295 9.01445C16.0568 9.5448 16.0568 10.1453 15.8295 10.6757C15.5692 11.2831 14.8102 11.7574 13.2921 12.7063L6.16223 17.1625C4.47739 18.2155 3.63496 18.742 2.93977 18.686C2.3338 18.6373 1.77832 18.3296 1.41585 17.8415C1 17.2816 1 16.2882 1 14.3013V5.38884C1 3.40199 1 2.40857 1.41585 1.84867C1.77832 1.36062 2.3338 1.05275 2.93977 1.00403C3.63496 0.948146 4.47739 1.47466 6.16223 2.52769L13.2921 6.98391Z" stroke="#6F402A" stroke-width="2" stroke-linejoin="round"/>
</svg>
