<svg width="30" height="25" viewBox="0 0 30 25" fill="none" xmlns="http://www.w3.org/2000/svg">
<path fill-rule="evenodd" clip-rule="evenodd" d="M26.25 3.57143H23.4375L22.5 1.78571C21.9478 0.747321 21.66 0 20.625 0H9.375C8.34 0 7.99687 0.851786 7.5 1.78571L6.5625 3.57143H3.75C1.67906 3.57143 0 5.17054 0 7.14286V21.4286C0 23.4009 1.67906 25 3.75 25H26.25C28.3209 25 30 23.4009 30 21.4286V7.14286C30 5.17054 28.3209 3.57143 26.25 3.57143ZM15 21.4286C10.8581 21.4286 7.5 18.2304 7.5 14.2857C7.5 10.3411 10.8581 7.14286 15 7.14286C19.1419 7.14286 22.5 10.3411 22.5 14.2857C22.5 18.2304 19.1419 21.4286 15 21.4286ZM15 8.92857C11.8941 8.92857 9.375 11.3277 9.375 14.2857C9.375 17.2437 11.8941 19.6429 15 19.6429C18.1059 19.6429 20.625 17.2437 20.625 14.2857C20.625 11.3277 18.1059 8.92857 15 8.92857Z" fill="white"/>
</svg>
