<svg width="26" height="27" viewBox="0 0 26 27" fill="none" xmlns="http://www.w3.org/2000/svg">
<path d="M10.6 0.799988C4.96096 0.799988 0.400024 5.36093 0.400024 11C0.400024 16.639 4.96096 21.2 10.6 21.2C12.6133 21.2 14.4766 20.6094 16.0563 19.6062L23.425 26.975L25.975 24.425L18.7 17.1687C20.0078 15.4531 20.8 13.3273 20.8 11C20.8 5.36093 16.2391 0.799988 10.6 0.799988ZM10.6 3.19999C14.9196 3.19999 18.4 6.68046 18.4 11C18.4 15.3195 14.9196 18.8 10.6 18.8C6.28049 18.8 2.80002 15.3195 2.80002 11C2.80002 6.68046 6.28049 3.19999 10.6 3.19999Z" fill="white"/>
</svg>
